<svg width="48" height="48" viewBox="0 0 48 48" fill="none" xmlns="http://www.w3.org/2000/svg">
<path d="M45.0021 24.4664C45.0021 22.7397 44.8591 21.4797 44.5497 20.1731H24.4307V27.9663H36.2401C36.0021 29.9031 34.7164 32.8197 31.8592 34.7796L31.8191 35.0405L38.1804 39.87L38.6211 39.9131C42.6686 36.2497 45.0021 30.8597 45.0021 24.4664Z" fill="#4285F4"/>
<path d="M24.4295 45C30.2151 45 35.0721 43.1333 38.6199 39.9133L31.8579 34.7798C30.0485 36.0165 27.6198 36.8798 24.4295 36.8798C18.7628 36.8798 13.9534 33.2166 12.2389 28.1532L11.9876 28.1741L5.37312 33.1908L5.28662 33.4265C8.81038 40.2865 16.0485 45 24.4295 45Z" fill="#34A853"/>
<path d="M12.2399 28.1533C11.7876 26.8467 11.5258 25.4466 11.5258 24C11.5258 22.5532 11.7876 21.1533 12.2161 19.8466L12.2042 19.5683L5.50674 14.4711L5.28761 14.5732C3.83529 17.4199 3.00195 20.6166 3.00195 24C3.00195 27.3833 3.83529 30.5799 5.28761 33.4266L12.2399 28.1533Z" fill="#FBBC05"/>
<path d="M24.4296 11.1199C28.4533 11.1199 31.1676 12.8233 32.7152 14.2467L38.7628 8.46C35.0487 5.07668 30.2152 3 24.4296 3C16.0485 3 8.8104 7.7133 5.28662 14.5732L12.2152 19.8466C13.9534 14.7833 18.7629 11.1199 24.4296 11.1199Z" fill="#EB4335"/>
</svg>